<svg width="68" height="93" viewBox="0 0 68 93" fill="none" xmlns="http://www.w3.org/2000/svg">
<path d="M46.0944 71.75C48.4864 81.04 54.4373 85.0864 53.0792 92.3943L37.0723 92.428C44.145 86.4577 42.5509 89.783 46.0944 71.75Z" fill="#AC4252"/>
<path d="M32.5866 92.4333L0.159668 92.5008C0.159668 92.5008 0.277734 91.0334 0.277734 88.3097C0.277734 82.0874 -0.504265 72.4003 5.39447 70.2164C6.68809 69.7482 20.6685 64.7112 21.9402 63.6016C28.1062 90.3199 23.6636 84.9164 32.5866 92.4333Z" fill="#AC4252"/>
<path d="M34.8254 53.0636C38.7839 53.0636 40.7819 51.0585 43.1151 49.1582C42.215 53.5282 41.9038 57.9687 45.2439 61.7152C45.2439 65.3952 45.1202 67.8485 46.0944 71.7468C42.5472 89.8002 44.1358 86.4668 37.0722 92.4248L32.5867 92.433C25.0703 86.1008 27.2824 90.6952 21.9658 63.7085C26.2827 61.1259 27.7726 56.2626 26.9471 51.2624C26.871 50.8249 26.7028 50.0169 26.526 49.1582C28.8423 51.0442 30.8515 53.0636 34.8254 53.0636Z" fill="#FFB290"/>
<path d="M41.0281 50.8586C37.4534 53.7816 32.2477 53.8153 28.6147 50.8586C22.761 46.0914 19.4444 44.5382 19.6851 37.0059C20.0286 24.1423 19.4607 27.4267 22.6812 19.3726C24.2417 15.4698 26.9059 12.1065 30.3479 9.69418C34.929 8.02847 36.9346 10.1542 49.4185 20.0626C49.5069 20.9044 49.4517 19.8857 49.9991 38.0562C50.1872 44.3741 45.9097 46.8806 41.0281 50.8586Z" fill="#FFBD92"/>
<path d="M67.8414 92.3574L58.668 92.3742C61.2932 89.6174 63.1849 86.2461 64.17 82.5689C65.1551 78.8917 65.202 75.0262 64.3065 71.3262C69.3083 76.0013 67.1718 84.5271 67.8414 92.3574Z" fill="#AC4252"/>
<path d="M19.9203 28.8679L19.7522 34.4815C18.8557 34.2351 18.1739 34.1421 17.8416 33.2359C17.6663 32.7626 16.5879 30.0159 16.5879 29.5559C16.5879 28.2562 17.9444 27.515 18.961 28.2091L19.9203 28.8679Z" fill="#FFB290"/>
<path d="M19.9708 27.3685C19.9708 27.3813 19.9197 28.8507 19.9197 28.8666L18.9603 28.2098C17.6524 27.3169 16.138 28.7797 16.6966 30.1459C18.211 34.2348 17.8364 33.9537 19.7515 34.4801L19.6841 37.005C19.4857 37.1007 19.268 37.1497 19.0477 37.1482C18.8275 37.1466 18.6105 37.0947 18.4134 36.9963C16.5361 36.0405 16.5837 34.8496 14.9041 28.3785C14.3215 26.0478 17.057 24.4368 18.809 25.9629C19.7883 27.1589 19.5195 26.8359 19.9708 27.3685Z" fill="#FFBD92"/>
<path d="M63.9862 70.1292C61.8395 62.6184 60.365 59.7404 60.1988 55.5528C60.1988 55.5528 60.3011 33.6967 54.754 17.9759C49.9148 4.30013 43.8893 1.90967 36.6008 0.76529C34.2278 0.396779 31.8122 0.327779 29.5398 1.11233C26.3009 3.31829 18.3813 7.80789 16.0409 18.8428C10.5372 44.7367 12.4963 31.1279 9.26611 68.396C12.7785 67.4387 20.6639 64.7109 21.9417 63.5987L21.9672 63.7081C26.2825 61.1244 27.7724 56.2612 26.947 51.261C26.8708 50.823 26.7027 50.0154 26.5258 49.1568C22.715 46.0569 19.452 44.2445 19.6836 37.0046C19.4852 37.1003 19.2675 37.1493 19.0473 37.1478C18.827 37.1463 18.61 37.0943 18.413 36.9959C16.5356 36.0401 16.5832 34.8492 14.9037 28.3781C14.321 26.0474 17.0565 24.4364 18.8086 25.9626C19.7873 27.1586 19.5185 26.835 19.9698 27.3681C19.9698 25.7837 20.414 25.038 22.6787 19.3728C24.2393 15.4701 26.9035 12.1068 30.3454 9.6944C34.9264 8.02869 36.932 10.1544 49.4159 20.0628C49.5044 20.9061 49.4492 19.8865 49.9966 38.0565C50.18 44.2271 45.7942 46.9754 43.1124 49.1568C42.2031 53.5712 41.9256 57.9949 45.2412 61.7138C45.2412 72.9183 46.5476 74.1338 52.0333 85.0087C53.1738 87.2903 53.54 89.8813 53.0765 92.3896L58.665 92.3728C61.4349 89.4638 63.3861 85.874 64.3206 81.9675C65.2551 78.0609 65.1398 73.9767 63.9862 70.1292Z" fill="#4A241B"/>
<path d="M14.1048 66.9414C13.9515 67.0012 9.38933 68.7743 9.23242 68.8264L9.26616 68.3976C10.8266 67.9718 12.4049 67.5921 14.1048 66.9414Z" fill="#4A241B"/>
</svg>
