<svg width="90" height="91" viewBox="0 0 90 91" fill="none" xmlns="http://www.w3.org/2000/svg">
<path d="M89.9514 122.098H89.5559C89.2224 121.324 89.2963 120.49 89.2398 119.682C89.1724 118.726 89.2202 117.761 89.2245 116.801C89.2354 113.875 89.0344 110.959 88.8356 108.04C88.4857 102.887 87.8577 97.7606 87.334 92.6246C87.2329 91.625 87.2253 90.6145 87.1971 89.6139C87.1265 87.0725 86.8581 84.5517 86.5864 82.0321C86.2757 79.1473 86.0269 76.2517 85.5184 73.3898C84.9404 70.14 84.1841 66.938 82.9357 63.8708C81.8199 61.1273 80.0586 58.8945 77.6117 57.2245C75.0041 55.4491 72.1911 54.1105 69.2314 53.024C66.6454 52.0754 63.9226 51.6321 61.3301 50.727C60.8749 50.5673 60.7271 50.8172 60.562 51.1617C59.834 52.6741 59.0408 54.1713 57.737 55.2557C54.812 57.6884 51.5938 59.5279 47.6323 59.4041C45.6081 59.341 43.6556 58.7793 41.7716 58.0524C39.2725 57.0865 36.8137 56.0293 34.8591 54.0877C33.8175 53.0581 32.9212 51.8913 32.1949 50.6195C32.0319 50.3348 31.9472 50.0241 32.1341 49.7068C32.2286 49.5688 32.409 49.5254 32.5046 49.3808C32.3948 49.4708 32.2766 49.5497 32.1514 49.6166C30.4771 50.2968 28.7202 50.7781 27.1045 51.5876C23.444 53.4184 19.6683 55.0058 16.0958 57.0278C11.8258 59.4443 9.12576 63.0591 7.54378 67.6084C6.5257 70.5236 5.98244 73.5365 5.49676 76.569C4.79813 80.9499 4.15272 85.3395 3.36608 89.7084C3.01513 91.6641 3.03034 93.6688 2.71416 95.6343C2.01879 99.9945 1.77866 104.404 1.30168 108.781C0.902922 112.431 1.09958 116.091 1.03656 119.748C1.02244 120.536 1.03656 121.342 0.710606 122.091C0.135833 122.105 0.142353 122.105 0.14018 121.598C0.138007 121.091 0.219497 120.564 0.154305 120.045C0.229275 118.198 0.273823 116.341 0.24992 114.488C0.214064 111.554 0.467227 108.641 0.808396 105.73C1.08655 103.369 1.25604 100.995 1.52007 98.632C1.73738 96.6556 2.03726 94.689 2.28064 92.7159C2.39472 91.8086 2.45883 90.896 2.56966 89.9887C2.84238 87.7646 3.30958 85.5709 3.63554 83.3609C4.04625 80.5577 4.49209 77.7595 4.97306 74.9664C5.51632 71.7361 6.26711 68.5646 7.5981 65.5527C9.31156 61.6727 11.8823 58.5631 15.6265 56.4704C17.2812 55.5458 18.9338 54.6233 20.6658 53.8421C21.8316 53.3184 22.9899 52.7741 24.1307 52.1982C26.9502 50.7885 29.9027 49.6621 32.9446 48.8354C33.3083 48.7476 33.6476 48.5789 33.9371 48.3419C34.2266 48.1049 34.4589 47.8056 34.6168 47.4664C35.0514 46.6135 35.2252 45.7029 35.2796 44.7588C35.3621 43.3126 35.159 41.8881 34.9851 40.4572C34.8634 39.4478 34.4734 38.5199 34.23 37.5486C33.8736 36.1274 33.7171 34.6704 33.5281 33.2209C33.4814 32.8624 33.3868 32.745 32.9848 32.7352C32.0211 32.7124 31.3126 32.1844 30.8118 31.3803C30.5206 30.911 30.3641 30.3818 30.2294 29.8494C29.8772 28.5247 29.6201 27.1765 29.4601 25.8152C29.4226 25.4981 29.4197 25.1778 29.4514 24.8601C29.5688 23.8681 29.9654 23.3161 30.9095 22.7664C30.4025 21.5965 29.8955 20.426 29.3884 19.2547C28.3034 16.8053 28.124 14.0501 28.8821 11.4806C29.2711 10.0964 29.7176 8.72625 30.0686 7.33333C30.4934 5.64921 31.5234 4.58115 33.1478 4.04441C35.1861 3.37185 37.2038 2.64279 39.1237 1.67252C40.3111 1.08712 41.5517 0.616682 42.8287 0.267636C44.2488 -0.136552 45.6244 -0.091999 46.988 0.463216C47.5801 0.704426 48.1832 0.928247 48.7601 1.19336C50.2812 1.88439 51.8806 2.20926 53.5234 2.39397C54.2264 2.47329 54.9359 2.55152 55.6063 2.78512C56.6439 3.14368 57.4534 3.77821 57.9804 4.74087C58.223 5.18056 58.4678 5.61951 58.7149 6.05774C59.0233 6.62319 59.4762 7.09671 60.0274 7.43003C62.0309 8.62521 62.8448 10.4451 62.9089 12.7062C62.973 14.9673 62.4677 17.1034 61.605 19.17C61.1365 20.3353 60.545 21.4473 59.8405 22.4871C61.0531 23.0836 61.441 24.1712 61.5051 25.3338C61.6257 27.5134 61.0954 29.5495 59.7916 31.3423C59.4926 31.7484 59.1292 32.1029 58.7159 32.3919C58.2183 32.7461 57.6881 32.8743 57.0959 32.6385C56.9264 32.7157 56.9254 32.8874 56.8884 33.0395C56.8544 33.2188 56.8109 33.3961 56.758 33.5708C56.143 35.2766 56.1061 37.0564 56.0637 38.8383C56.0224 40.6452 55.9551 42.451 55.9073 44.2568C55.8801 45.2347 56.1365 46.1604 56.5309 47.0437C57.097 48.315 58.1053 49.1081 59.4189 49.4873C61.3932 50.0491 63.3511 50.6564 65.347 51.1551C69.6931 52.2417 73.8122 53.8954 77.5748 56.3705C80.6062 58.3653 82.688 61.0882 83.906 64.4966C85.0868 67.8128 85.9242 71.2413 86.405 74.7284C87.0135 79.0745 87.4818 83.4373 87.8099 87.8167C87.9468 89.6171 87.9989 91.4218 88.1456 93.2233C88.326 95.4116 88.5802 97.5911 88.7791 99.7761C88.9616 101.803 89.2137 103.822 89.3886 105.849C89.8069 110.847 90.0123 115.845 89.9775 120.86C89.971 121.274 89.959 121.686 89.9514 122.098Z" fill="#010101"/>
<path d="M0.706055 122.095C0.947264 119.152 0.844044 116.203 0.855996 113.255C0.880197 111.317 1.00895 109.382 1.24171 107.458C1.36884 106.326 1.42316 105.187 1.55572 104.056C1.68828 102.925 1.72956 101.785 1.91536 100.659C2.00771 100.098 2.02401 99.5226 2.05769 98.9576C2.13484 97.7462 2.43907 96.5673 2.56293 95.3721C2.66072 94.4214 2.84 93.4761 2.89432 92.5232C3.01929 90.6141 3.2734 88.7155 3.65489 86.8407C3.96346 85.2544 4.23944 83.6626 4.45023 82.06C4.69579 80.1879 5.05542 78.3299 5.32923 76.4611C5.57152 74.815 5.84641 73.1765 6.21692 71.5543C6.79386 69.0325 7.54031 66.5672 8.77678 64.2746C9.7264 62.5177 10.8412 60.8792 12.3199 59.5145C13.4326 58.4878 14.6908 57.6587 15.9881 56.8862C18.21 55.5639 20.5428 54.4611 22.8995 53.4093C23.7958 53.0073 24.664 52.5401 25.5419 52.1055C27.5683 51.0874 29.6946 50.3225 31.8318 49.5837C31.9801 49.5242 32.1381 49.4926 32.2979 49.4902C32.3403 49.5207 32.3544 49.55 32.3392 49.5804C32.324 49.6108 32.3099 49.6239 32.2957 49.6239C32.0665 49.9629 32.1795 50.2823 32.3642 50.5865C32.8623 51.433 33.4316 52.2356 34.0657 52.9856C35.7813 54.9609 37.9142 56.306 40.3241 57.285C42.1378 58.0345 44.0162 58.6164 45.936 59.0234C48.0428 59.458 50.0724 59.2309 52.0488 58.4802C53.7873 57.8195 55.3812 56.8797 56.8752 55.7725C57.9617 54.9707 58.782 53.9396 59.4741 52.7987C59.9001 52.0968 60.3434 51.396 60.5791 50.6017C60.6585 50.3399 60.7736 50.3584 60.9779 50.4246C61.8471 50.7082 62.7 51.0766 63.5856 51.2352C65.7586 51.6296 67.823 52.363 69.8874 53.0932C72.9829 54.1895 75.9003 55.6628 78.5145 57.6642C80.7038 59.3407 82.2402 61.529 83.2387 64.0997C84.3089 66.854 85.0336 69.7007 85.5693 72.5996C85.9495 74.664 86.2212 76.7382 86.4157 78.8254C86.5493 80.2531 86.7753 81.671 86.922 83.0976C87.0513 84.3449 87.1154 85.5966 87.2284 86.8461C87.3957 88.7095 87.4272 90.5805 87.5163 92.4483C87.5674 93.5131 87.7597 94.5724 87.8727 95.635C87.9857 96.6977 88.0748 97.7679 88.1845 98.8327C88.299 99.9431 88.42 101.052 88.5474 102.16C88.6094 102.703 88.667 103.246 88.7006 103.789C88.7897 105.177 88.9571 106.558 89.0331 107.949C89.1276 109.656 89.2113 111.365 89.3189 113.072C89.4058 114.443 89.4177 115.811 89.4156 117.18C89.4156 118.826 89.4916 120.468 89.559 122.11C84.7471 122.115 79.9349 122.119 75.1223 122.125C74.2118 122.125 73.3002 122.146 72.3886 122.158V122.1C72.0833 121.524 72.3299 120.934 72.3669 120.361C72.4788 118.399 72.4788 116.432 72.3669 114.47C72.2799 112.694 72.1018 110.926 72.2517 109.131C72.3851 107.329 72.3757 105.519 72.2235 103.718C72.0289 101.228 72.1999 98.7222 72.7309 96.2815C73.6001 92.3385 73.9684 88.3314 74.4693 84.3395C74.591 83.3616 74.5432 82.3772 74.591 81.3961C74.6725 79.7522 74.8083 78.1148 74.9235 76.4731C74.3693 81.3907 74.2053 86.3452 73.524 91.2498C73.2796 93.0198 72.8221 94.7473 72.4896 96.4999C72.1899 98.0026 72.0385 99.5311 72.0377 101.063C72.0583 103.739 72.1115 106.418 72.0246 109.092C71.9355 111.816 72.2017 114.519 72.2832 117.232C72.3278 118.734 72.1898 120.245 72.0083 121.743C71.9928 121.881 71.9302 122.009 71.8312 122.106V122.164C71.5585 122.151 71.288 122.128 71.012 122.127H17.4462C17.1724 122.127 16.9029 122.15 16.6259 122.16V122.102C16.4227 121.855 16.5172 121.577 16.5541 121.312C17.2321 116.442 17.946 111.571 18.2709 106.669C18.5001 103.192 19.0314 99.7617 19.2726 96.2967C19.4302 94.0324 19.2118 91.7746 18.963 89.5233C18.5523 85.7998 18.0188 82.0926 17.4777 78.3864C18.0546 82.4805 18.5284 86.5854 18.9923 90.6924C19.3824 94.1563 19.101 97.5854 18.5696 101.008C18.2567 103.022 18.1948 105.056 18.0601 107.086C17.934 108.98 17.6602 110.859 17.3962 112.736C16.9974 115.561 16.7975 118.422 16.2999 121.239C16.2445 121.554 16.2412 121.884 15.9381 122.092V122.154C15.6643 122.143 15.3948 122.123 15.1188 122.123C10.5554 122.123 5.9949 122.123 1.43729 122.123C1.20694 122.113 0.957042 122.103 0.706055 122.095Z" fill="#4E4534"/>
<path d="M15.9561 122.083C16.1386 120.914 16.332 119.746 16.4993 118.574C16.7036 117.154 16.7992 115.721 17.0122 114.301C17.198 113.061 17.3164 111.813 17.4707 110.57C17.5891 109.62 17.7293 108.674 17.8347 107.724C17.927 106.884 17.9433 106.037 17.9781 105.196C18.0455 103.458 18.2823 101.747 18.5214 100.032C18.8734 97.5197 19.1439 94.9946 18.9429 92.4565C18.818 90.869 18.6713 89.2805 18.4518 87.6996C18.2128 85.9851 18.0672 84.2586 17.8597 82.5397C17.7119 81.3195 17.5152 80.1048 17.3707 78.8846C17.3207 78.4598 17.3631 78.0252 17.3631 77.5254C17.7119 77.859 17.6619 78.2708 17.7173 78.6195C18.0107 80.4406 18.2827 82.2648 18.5333 84.0924C18.705 85.3332 18.8104 86.5838 18.9907 87.8224C19.2265 89.4522 19.3688 91.082 19.484 92.7118C19.5939 94.1028 19.575 95.5009 19.4275 96.8884C19.3102 97.9054 19.2385 98.93 19.1113 99.9481C18.994 100.898 18.8593 101.845 18.7571 102.796C18.6745 103.566 18.5876 104.34 18.5768 105.113C18.5529 106.737 18.3681 108.343 18.1845 109.952C18.04 111.22 17.9205 112.49 17.738 113.755C17.4316 115.873 17.2892 118.013 16.947 120.128C16.8383 120.78 16.7297 121.432 16.6406 122.084C16.414 122.123 16.1825 122.122 15.9561 122.083Z" fill="#010101"/>
<path d="M71.8378 122.094C71.9204 120.798 72.0073 119.502 72.0823 118.204C72.1089 117.839 72.1111 117.473 72.0888 117.108C71.9693 115.47 71.9259 113.827 71.8009 112.191C71.7379 111.364 71.8237 110.562 71.8259 109.739C71.8259 106.903 71.8465 104.069 71.8183 101.233C71.7987 99.3498 72.0617 97.5059 72.4354 95.6708C72.7266 94.2431 73.0548 92.8219 73.296 91.3855C73.4655 90.3762 73.5133 89.3472 73.6219 88.3281C73.7306 87.3773 73.8534 86.4299 73.9609 85.4792C74.0381 84.8012 74.1587 84.1199 74.1554 83.4409C74.1478 82.1827 74.2641 80.931 74.3336 79.6793C74.402 78.5461 74.5889 77.4171 74.7563 76.2915C74.791 76.0514 74.8084 75.7406 75.1246 75.6016C75.1246 76.1448 75.1854 76.6577 75.1137 77.1553C74.8812 78.7612 74.9127 80.3845 74.7508 81.9936C74.7074 82.4282 74.7302 82.8628 74.728 83.2974C74.7215 84.51 74.527 85.7019 74.3651 86.8993C74.2423 87.8011 74.1152 88.7062 74.0565 89.6156C73.9479 91.2367 73.6284 92.8208 73.3112 94.4061C72.945 96.238 72.6006 98.0666 72.4843 99.9409C72.4115 101.108 72.3409 102.276 72.4267 103.43C72.5517 105.121 72.4832 106.809 72.5234 108.498C72.5354 109.006 72.4148 109.496 72.4028 109.997C72.3648 111.596 72.5517 113.186 72.6201 114.777C72.6995 116.646 72.7723 118.52 72.5593 120.391C72.4952 120.956 72.4615 121.527 72.3898 122.092L71.8378 122.094Z" fill="#010101"/>
<path d="M57.1057 23.4819C57.0829 26.0896 56.997 28.6973 56.7482 31.2886C56.5754 33.0988 56.0246 34.8187 55.4335 36.5257C55.1374 37.4148 54.7888 38.2856 54.3894 39.1333C52.9106 42.1756 50.5539 44.0662 47.19 44.6746C44.6638 45.1288 42.28 44.792 40.0342 43.5316C39.295 43.1202 38.5817 42.6641 37.898 42.1658C36.0205 40.7849 34.8753 38.9693 34.5005 36.6561C33.9789 33.4291 33.4139 30.2064 33.3129 26.9306C33.2108 23.7112 33.565 20.5516 34.482 17.4474C35.0991 15.3558 36.3921 14.1454 38.5326 13.7771C40.899 13.3707 43.2644 12.9904 45.6743 12.9285C47.0021 12.8948 48.2994 12.5873 49.6054 12.3624C50.5985 12.1907 51.5948 12.1103 52.6074 12.2537C54.2546 12.4873 55.3955 13.3457 55.9757 14.9027C56.4242 16.1268 56.7262 17.3996 56.8753 18.6947C57.0653 20.283 57.1423 21.8827 57.1057 23.4819Z" fill="#FDCDAF"/>
<path d="M57.4443 25.8957C57.4084 24.9385 57.6453 23.9921 57.5594 23.0306C57.4356 21.6485 57.4247 20.2599 57.3117 18.8757C57.1903 17.4463 56.8891 16.0379 56.4153 14.6839C55.9112 13.2181 54.8801 12.2685 53.3817 11.885C52.3322 11.6166 51.2565 11.6492 50.1917 11.8317C48.8716 12.0588 47.5569 12.3239 46.2324 12.526C45.7321 12.5846 45.2271 12.5915 44.7254 12.5467C43.4628 12.476 42.2264 12.6847 40.9866 12.8574C39.999 12.9954 39.0048 13.1204 38.0367 13.3779C37.4662 13.5414 36.911 13.7544 36.3776 14.0146C35.4747 14.4351 34.9206 15.2021 34.5457 16.0638C33.8938 17.5719 33.5211 19.1712 33.2419 20.7923C32.9615 22.4766 32.827 24.1819 32.8399 25.8892C32.8505 25.9403 32.8479 25.9933 32.8323 26.0431C32.8167 26.093 32.7886 26.138 32.7508 26.1739C32.4683 25.7458 32.352 25.2536 32.1956 24.7994C31.5284 22.8763 30.631 21.0542 29.8389 19.1864C29.0602 17.4011 28.729 15.4527 28.874 13.5104C28.9392 12.6716 29.2 11.86 29.4314 11.0527C29.8302 9.67281 30.2681 8.30596 30.6538 6.92389C30.9862 5.73523 31.8164 5.0366 32.8931 4.60416C34.0144 4.15434 35.1672 3.78492 36.2994 3.36226C37.2428 3.01781 38.1654 2.61874 39.0624 2.16708C40.5377 1.39011 42.1209 0.838204 43.7595 0.529683C44.7768 0.338842 45.8278 0.452222 46.7811 0.855641C47.9143 1.33589 49.0367 1.84873 50.2134 2.21923C51.2141 2.53432 52.2452 2.6973 53.2872 2.82117C54.2086 2.92982 55.1343 3.02 55.9938 3.46439C56.7543 3.85772 57.3302 4.39663 57.704 5.16263C57.8637 5.48859 58.0495 5.80694 58.2103 6.1405C58.684 7.10751 59.5489 7.67251 60.3833 8.27553C61.5361 9.11325 62.1544 10.2584 62.3738 11.6536C62.4572 12.1703 62.5012 12.6926 62.5053 13.216C62.5151 15.2586 61.9707 17.1709 61.1917 19.0365C60.6484 20.3479 59.9161 21.5486 59.174 22.7568C58.5591 23.7564 57.9147 24.7679 57.5442 25.9077L57.4964 25.9522L57.4443 25.8957Z" fill="#1F120C"/>
<path d="M35.5754 40.579C37.3931 42.7792 39.7042 44.2373 42.4379 44.9924C44.8597 45.6607 47.2512 45.3619 49.5709 44.5068C51.1518 43.9233 52.4046 42.8585 53.44 41.5373C54.3538 40.3725 54.971 39.0513 55.5044 37.6855C55.8434 37.7181 55.6652 37.9431 55.6587 38.1039C55.5751 40.0911 55.4751 42.0784 55.4143 44.0667C55.3682 45.2619 55.6329 46.4486 56.1824 47.511C56.7322 48.5704 57.5949 49.2962 58.6814 49.7547C58.8075 49.8068 58.9379 49.8503 59.0672 49.8959C60.2265 50.3023 60.2167 50.2969 59.6441 51.4301C58.5511 53.5956 56.9778 55.2895 54.8308 56.4466C53.5835 57.1181 52.3546 57.8222 50.9888 58.2426C48.9766 58.862 46.9828 58.7099 44.964 58.2307C42.7447 57.687 40.5941 56.8935 38.5535 55.8653C36.1164 54.6593 34.2433 52.8024 32.8471 50.4696C32.545 49.9644 32.5472 49.9427 33.072 49.6417C34.7018 48.7051 35.4319 47.2513 35.6286 45.4281C35.7948 43.8864 35.609 42.3707 35.4374 40.8484C35.3972 40.7148 35.3102 40.554 35.5754 40.579Z" fill="#FDCDAF"/>
<path d="M61.0071 26.1199C60.9936 27.3999 60.7131 28.6629 60.1835 29.8283C59.7815 30.691 59.2241 31.4309 58.4146 31.9579C58.1419 32.135 57.8583 32.2838 57.5193 32.2241C57.2672 32.1828 57.0847 32.0698 57.1369 31.7699C57.4085 30.2879 57.1629 28.7613 57.5465 27.2836C57.9281 25.8731 58.5381 24.5345 59.3523 23.3211C59.5174 23.0679 59.7076 23.069 59.9303 23.2124C60.1921 23.3992 60.4028 23.6488 60.5431 23.9382C60.901 24.6069 61.0619 25.3635 61.0071 26.1199Z" fill="#FDCDAF"/>
<path d="M29.8221 25.394C29.8079 25.0037 29.8605 24.6138 29.9775 24.2412C30.0758 23.8857 30.2871 23.5719 30.5794 23.347C30.9814 23.0482 31.0814 23.0645 31.2628 23.5241C31.7887 24.8616 32.3037 26.2024 32.8198 27.5442C32.8977 27.7594 32.9395 27.9859 32.9437 28.2146C33.0077 29.4686 33.1372 30.7183 33.3316 31.9588C33.3891 32.3565 33.3489 32.4075 32.9545 32.3652C32.6344 32.3346 32.3241 32.2376 32.0435 32.0805C31.7629 31.9233 31.5181 31.7095 31.3247 31.4525C31.1406 31.2187 30.997 30.9558 30.8999 30.6745C30.3208 28.9589 30.0068 27.1889 29.8221 25.394Z" fill="#FDCDAF"/>
<path d="M55.6592 38.1034C55.5712 37.9774 55.6962 37.7774 55.5049 37.6851C55.4977 37.5942 55.5161 37.503 55.5579 37.422C55.5998 37.341 55.6635 37.2733 55.7418 37.2266C55.8005 37.5417 55.8081 37.8296 55.6592 38.1034Z" fill="#80736A"/>
<path d="M32.2925 49.6179C32.2925 49.5734 32.2925 49.5288 32.2925 49.4843C32.3487 49.4081 32.4226 49.3467 32.5077 49.3053C32.5929 49.2638 32.6868 49.2436 32.7814 49.2463C32.688 49.5071 32.45 49.5147 32.2925 49.6179Z" fill="#282B27"/>
<path d="M35.5747 40.5795C35.4562 40.6316 35.4878 40.7631 35.4334 40.8489C35.3868 40.776 35.3503 40.697 35.3248 40.6143C35.3096 40.5219 35.2389 40.372 35.3856 40.3491C35.503 40.3318 35.5475 40.4708 35.5747 40.5795Z" fill="#8B7F70"/>
<path d="M57.4448 25.8958C57.4769 25.8915 57.5094 25.8915 57.5415 25.8958C57.5296 25.9643 57.6035 26.0632 57.4698 26.086L57.4448 25.8958Z" fill="#545959"/>
<path d="M32.8836 26.4693C32.8836 26.4845 32.8836 26.5074 32.8782 26.5128C32.8709 26.5185 32.8625 26.5225 32.8535 26.5246C32.8445 26.5266 32.8351 26.5267 32.8261 26.5247C32.7696 26.4976 32.7728 26.4682 32.8326 26.4519C32.8467 26.4476 32.8663 26.4628 32.8836 26.4693Z" fill="#232828"/>
</svg>
