<svg width="32" height="40" viewBox="0 0 32 40" fill="none" xmlns="http://www.w3.org/2000/svg">
<path fill-rule="evenodd" clip-rule="evenodd" d="M15.1248 38.6288C15.9152 38.6288 30.0377 23.5396 30.0377 15.3035C30.0377 7.06734 23.3609 0.390625 15.1248 0.390625C6.88863 0.390625 0.211914 7.06734 0.211914 15.3035C0.211914 23.5396 14.3344 38.6288 15.1248 38.6288ZM15.1248 22.7624C19.3005 22.7624 22.6857 19.3773 22.6857 15.2015C22.6857 11.0258 19.3005 7.64069 15.1248 7.64069C10.9491 7.64069 7.56399 11.0258 7.56399 15.2015C7.56399 19.3773 10.9491 22.7624 15.1248 22.7624Z" fill="#054CBC"/>
<path fill-rule="evenodd" clip-rule="evenodd" d="M0.211914 15.3035C0.211914 23.5396 14.3344 38.6288 15.1248 38.6288V22.7624C10.9491 22.7622 7.56399 19.3772 7.56399 15.2015C7.56399 11.0258 10.9491 7.64071 15.1248 7.64069V0.390625C6.88863 0.390625 0.211914 7.06734 0.211914 15.3035Z" fill="#1A71F9"/>
</svg>
