<svg width="16" height="16" viewBox="0 0 16 16" fill="none" xmlns="http://www.w3.org/2000/svg">
<path d="M1.6665 8L2.99984 8.66667" stroke="#717171" stroke-linecap="round" stroke-linejoin="round"/>
<path d="M14.3333 8.33398L13 8.66732" stroke="#717171" stroke-linecap="round" stroke-linejoin="round"/>
<path d="M5.3335 11.6667L5.49728 11.2572C5.74084 10.6483 5.86262 10.3439 6.11657 10.1719C6.37052 10 6.69843 10 7.35423 10H8.6461C9.3019 10 9.62983 10 9.88376 10.1719C10.1377 10.3439 10.2595 10.6483 10.503 11.2572L10.6668 11.6667" stroke="#717171" stroke-linecap="round" stroke-linejoin="round"/>
<path d="M1.3335 11.334V13.2553C1.3335 13.5078 1.494 13.7387 1.74808 13.8516C1.91295 13.9249 2.07042 14.0007 2.26055 14.0007H3.40644C3.59658 14.0007 3.75404 13.9249 3.91891 13.8516C4.173 13.7387 4.3335 13.5078 4.3335 13.2553V12.0007" stroke="#717171" stroke-linecap="round" stroke-linejoin="round"/>
<path d="M11.6665 12.0007V13.2553C11.6665 13.5078 11.827 13.7387 12.0811 13.8516C12.246 13.9249 12.4034 14.0007 12.5936 14.0007H13.7394C13.9296 14.0007 14.087 13.9249 14.2519 13.8516C14.506 13.7387 14.6665 13.5078 14.6665 13.2553V11.334" stroke="#717171" stroke-linecap="round" stroke-linejoin="round"/>
<path d="M13.3335 5.66732L14.0002 5.33398" stroke="#717171" stroke-linecap="round" stroke-linejoin="round"/>
<path d="M2.66667 5.66732L2 5.33398" stroke="#717171" stroke-linecap="round" stroke-linejoin="round"/>
<path d="M3 6L3.72553 3.82339C4.01888 2.94337 4.16555 2.50335 4.51473 2.25168C4.86391 2 5.32773 2 6.25536 2H9.74467C10.6723 2 11.1361 2 11.4853 2.25168C11.8345 2.50335 11.9811 2.94337 12.2745 3.82339L13 6" stroke="#717171" stroke-linejoin="round"/>
<path d="M3.00016 6H13.0002C13.6383 6.67567 14.6668 7.6166 14.6668 8.6664V10.9801C14.6668 11.3605 14.4138 11.6805 14.078 11.725L12.0002 12H4.00016L1.92227 11.725C1.58653 11.6805 1.3335 11.3605 1.3335 10.9801V8.6664C1.3335 7.6166 2.36202 6.67567 3.00016 6Z" stroke="#717171" stroke-linejoin="round"/>
</svg>
