<svg width="16" height="16" viewBox="0 0 16 16" fill="none" xmlns="http://www.w3.org/2000/svg">
<path d="M11.72 6.47344C11.3845 6.38209 11.0314 6.33333 10.6668 6.33333C8.97803 6.33333 7.53363 7.37993 6.94696 8.85987M11.72 6.47344C13.4182 6.93573 14.6668 8.48873 14.6668 10.3333C14.6668 12.5425 12.876 14.3333 10.6668 14.3333C9.64236 14.3333 8.70783 13.9482 8.00016 13.3148M11.72 6.47344C11.9008 6.01745 12.0002 5.52033 12.0002 5C12.0002 2.79086 10.2093 1 8.00016 1C5.79102 1 4.00016 2.79086 4.00016 5C4.00016 5.52033 4.09952 6.01745 4.28028 6.47344M6.94696 8.85987C6.76616 9.31587 6.66683 9.813 6.66683 10.3333C6.66683 11.518 7.18183 12.5824 8.00016 13.3148M6.94696 8.85987C5.7278 8.528 4.74036 7.634 4.28028 6.47344M8.00016 13.3148C7.2925 13.9482 6.35797 14.3333 5.3335 14.3333C3.12436 14.3333 1.3335 12.5425 1.3335 10.3333C1.3335 8.48873 2.58212 6.93573 4.28028 6.47344" stroke="#717171" stroke-linecap="round"/>
</svg>
