<svg width="22" height="22" viewBox="0 0 22 22" fill="none" xmlns="http://www.w3.org/2000/svg">
<path d="M16.751 18.75C15.0795 20.0058 13.0016 20.75 10.75 20.75C5.22715 20.75 0.75 16.2728 0.75 10.75C0.75 5.22715 5.22715 0.75 10.75 0.75C16.2728 0.75 20.75 5.22715 20.75 10.75C20.75 11.6134 20.6406 12.4511 20.4349 13.2503C20.2117 14.1173 19.2645 14.52 18.4199 14.2228C17.7019 13.9701 17.3721 13.1497 17.552 12.41C17.6814 11.8779 17.75 11.322 17.75 10.75C17.75 6.88401 14.616 3.75 10.75 3.75C6.88401 3.75 3.75 6.88401 3.75 10.75C3.75 14.616 6.88401 17.75 10.75 17.75C12.0697 17.75 13.304 17.3848 14.3576 16.75" stroke="#FB2C36" stroke-width="1.5" stroke-linecap="round"/>
</svg>
