<svg width="254" height="128" viewBox="0 0 254 128" fill="none" xmlns="http://www.w3.org/2000/svg">
<path d="M0.534546 124.249C0.534546 126.136 52.6361 127.666 116.906 127.666C181.176 127.666 233.277 126.136 233.277 124.249C233.277 122.362 181.176 120.833 116.906 120.833C52.6355 120.833 0.534546 122.362 0.534546 124.249Z" fill="#F5F5F5"/>
<path d="M147.522 124.25C147.522 124.25 139.669 124.25 136.389 124.179C132.468 124.095 128.496 122.624 125.518 118.051C120.137 109.786 120.137 96.3866 125.518 88.1215C128.209 83.9893 133.39 81.9229 136.916 81.9229C140.442 81.9229 147.419 81.9229 147.419 81.9229C152.8 90.1879 152.903 115.985 147.522 124.25Z" fill="#231F20"/>
<path d="M136.916 82.2012C133.469 82.2013 128.383 84.2321 125.752 88.2734C123.097 92.3514 121.761 97.7123 121.761 103.087C121.761 108.461 123.097 113.822 125.752 117.899C128.671 122.383 132.551 123.818 136.396 123.9C138.032 123.936 140.813 123.954 143.187 123.963C144.373 123.967 145.457 123.97 146.244 123.971C146.638 123.971 146.958 123.972 147.179 123.972C147.253 123.972 147.316 123.972 147.367 123.972C148.642 121.95 149.612 118.884 150.259 115.263C150.918 111.572 151.24 107.332 151.228 103.088C151.215 98.8436 150.867 94.6019 150.188 90.9111C149.522 87.2893 148.54 84.2238 147.264 82.2012H136.916Z" stroke="#231F20" stroke-opacity="0.1" stroke-width="0.557134"/>
<path d="M147.418 124.249C139.808 124.249 133.639 114.774 133.639 103.086C133.639 91.398 139.808 81.9229 147.418 81.9229C155.028 81.9229 161.198 91.398 161.198 103.086C161.198 114.774 155.028 124.249 147.418 124.249Z" fill="#263238"/>
<path opacity="0.4" d="M147.418 116.062C142.753 116.062 138.971 110.252 138.971 103.086C138.971 95.9205 142.753 90.1113 147.418 90.1113C152.084 90.1113 155.866 95.9205 155.866 103.086C155.866 110.252 152.084 116.062 147.418 116.062Z" fill="white"/>
<g opacity="0.3">
<path d="M148.093 92.4503V99.1014C148.093 99.6736 147.791 100.138 147.419 100.138H147.414C147.041 100.138 146.739 99.6736 146.739 99.1014V92.4503C146.739 91.8782 147.041 91.4141 147.414 91.4141H147.419C147.791 91.4141 148.093 91.8782 148.093 92.4503Z" fill="white"/>
</g>
<g opacity="0.3">
<path d="M148.093 107.069V113.721C148.093 114.293 147.791 114.757 147.419 114.757H147.414C147.041 114.757 146.739 114.293 146.739 113.721V107.069C146.739 106.497 147.041 106.033 147.414 106.033H147.419C147.791 106.034 148.093 106.497 148.093 107.069Z" fill="white"/>
</g>
<g opacity="0.3">
<path d="M149.994 101.997C149.672 102.277 149.263 102.103 149.081 101.608V101.607C148.894 101.113 149.003 100.479 149.325 100.191L153.077 96.8483L153.079 96.8466C153.402 96.5619 153.814 96.733 153.999 97.2294C154 97.2305 154 97.231 154.001 97.2322C154.186 97.7286 154.075 98.3615 153.752 98.6467L150.004 101.989C150.001 101.992 149.998 101.995 149.994 101.997Z" fill="white"/>
</g>
<g opacity="0.3">
<path d="M140.833 108.894C140.833 108.893 140.833 108.892 140.832 108.891C140.647 108.395 140.758 107.762 141.081 107.477L144.829 104.135C145.152 103.846 145.566 104.013 145.756 104.509C145.943 105.008 145.832 105.644 145.508 105.933L141.76 109.275C141.436 109.563 141.021 109.392 140.833 108.894Z" fill="white"/>
</g>
<g opacity="0.3">
<path d="M153.998 108.924C153.812 109.419 153.4 109.589 153.077 109.302L149.325 105.96C149.003 105.67 148.893 105.033 149.081 104.536V104.535C149.269 104.041 149.682 103.874 150.004 104.162L153.751 107.504L153.753 107.505C154.075 107.792 154.186 108.426 153.999 108.921C153.999 108.921 153.998 108.923 153.998 108.924Z" fill="white"/>
</g>
<g opacity="0.3">
<path d="M145.752 101.619C145.564 102.112 145.151 102.278 144.829 101.989L141.082 98.6471L141.08 98.6454C140.758 98.3591 140.647 97.725 140.834 97.2297C141.022 96.7317 141.437 96.5612 141.761 96.8487L145.508 100.191L145.51 100.193C145.833 100.479 145.943 101.113 145.756 101.608C145.755 101.612 145.754 101.615 145.752 101.619Z" fill="white"/>
</g>
<path d="M147.419 101.341C148.046 101.341 148.555 102.122 148.555 103.086C148.555 104.05 148.046 104.831 147.419 104.831C146.791 104.831 146.283 104.05 146.283 103.086C146.283 102.122 146.791 101.341 147.419 101.341Z" fill="#263238"/>
<g opacity="0.3">
<path d="M147.418 124.249C139.808 124.249 133.639 114.774 133.639 103.086C133.639 91.398 139.808 81.9229 147.418 81.9229C155.028 81.9229 161.198 91.398 161.198 103.086C161.198 114.774 155.028 124.249 147.418 124.249Z" fill="#231F20"/>
<path d="M147.418 82.2012C143.739 82.2012 140.37 84.4925 137.908 88.2734C135.448 92.0517 133.918 97.288 133.917 103.086C133.917 108.884 135.448 114.12 137.908 117.898C140.37 121.679 143.739 123.971 147.418 123.971C151.098 123.971 154.466 121.679 156.928 117.898C159.388 114.12 160.919 108.884 160.919 103.086C160.919 97.288 159.388 92.0517 156.928 88.2734C154.466 84.4926 151.098 82.2013 147.418 82.2012Z" stroke="#231F20" stroke-opacity="0.1" stroke-width="0.557134"/>
</g>
<path d="M105.48 112.255C105.48 112.255 102.52 79.4736 122.977 79.4736C122.977 79.4736 134.17 79.6023 135.971 94.9129C137.772 110.224 136.615 112.255 136.615 112.255H105.48Z" fill="#054CBC"/>
<g opacity="0.3">
<path d="M105.48 112.255C105.48 112.255 102.52 79.4736 122.977 79.4736C122.977 79.4736 134.17 79.6023 135.971 94.9129C137.772 110.224 136.615 112.255 136.615 112.255H105.48Z" fill="#231F20"/>
<path d="M122.977 79.752C117.95 79.752 114.375 81.7613 111.826 84.7754C109.268 87.8001 107.733 91.8487 106.83 95.9248C105.927 99.9974 105.658 104.075 105.616 107.137C105.595 108.667 105.631 109.942 105.671 110.834C105.692 111.28 105.713 111.63 105.73 111.868C105.733 111.907 105.735 111.944 105.738 111.977H136.417C136.439 111.901 136.466 111.795 136.494 111.647C136.571 111.237 136.658 110.52 136.69 109.318C136.754 106.915 136.595 102.594 135.695 94.9453C134.803 87.3663 131.596 83.584 128.648 81.6865C127.169 80.7344 125.744 80.2496 124.691 80.0039C124.164 79.8811 123.731 79.8185 123.431 79.7861C123.282 79.77 123.165 79.7613 123.087 79.7568C123.048 79.7546 123.019 79.7536 123 79.7529C122.99 79.7526 122.982 79.7521 122.978 79.752H122.977Z" stroke="#231F20" stroke-opacity="0.1" stroke-width="0.557134"/>
</g>
<path d="M199.074 113.561C199.074 113.561 195.822 78.599 217.21 74.4316C217.21 74.4316 229.274 74.5793 231.215 92.1541C233.156 109.729 224.71 112.76 224.71 112.76L199.074 113.561Z" fill="#054CBC"/>
<g opacity="0.3">
<path d="M199.074 113.561C199.074 113.561 195.822 78.599 217.21 74.4316C217.21 74.4316 229.274 74.5793 231.215 92.1541C233.156 109.729 224.71 112.76 224.71 112.76L199.074 113.561Z" fill="#231F20"/>
<path d="M217.236 74.7109C206.739 76.7713 202.248 86.3837 200.394 95.6143C199.468 100.222 199.207 104.703 199.178 108.035C199.164 109.7 199.206 111.078 199.253 112.037C199.277 112.517 199.301 112.892 199.32 113.147C199.323 113.193 199.328 113.235 199.331 113.273L224.652 112.482C224.663 112.478 224.678 112.473 224.694 112.466C224.75 112.442 224.833 112.403 224.941 112.348C225.156 112.237 225.466 112.057 225.834 111.787C226.57 111.247 227.54 110.344 228.455 108.898C230.282 106.01 231.903 100.926 230.938 92.1846C229.975 83.4671 226.51 79.1138 223.327 76.9316C221.73 75.8373 220.194 75.2821 219.058 75C218.491 74.859 218.024 74.7862 217.701 74.749C217.539 74.7304 217.413 74.7209 217.329 74.7158C217.288 74.7133 217.256 74.7117 217.236 74.7109Z" stroke="#231F20" stroke-opacity="0.1" stroke-width="0.557134"/>
</g>
<path d="M217.798 123.293C217.798 123.293 210.506 123.293 207.462 123.222C203.821 123.138 200.134 121.667 197.37 117.094C192.374 108.829 192.374 95.4296 197.37 87.1645C199.867 83.0322 204.678 80.9658 207.951 80.9658C211.225 80.9658 217.702 80.9658 217.702 80.9658C222.698 89.2309 222.794 115.028 217.798 123.293Z" fill="#231F20"/>
<path d="M207.952 81.2441C204.766 81.2441 200.051 83.2672 197.608 87.3086C195.142 91.3877 193.902 96.7509 193.902 102.129C193.902 107.339 195.066 112.536 197.38 116.564L197.608 116.95C200.318 121.434 203.914 122.861 207.468 122.943H207.469C208.988 122.979 211.569 122.997 213.773 123.006C214.874 123.01 215.881 123.013 216.612 123.014C216.977 123.014 217.274 123.015 217.479 123.015C217.54 123.015 217.593 123.015 217.637 123.015C218.819 120.991 219.719 117.928 220.319 114.31C220.931 110.618 221.23 106.375 221.218 102.13C221.206 97.8848 220.884 93.643 220.253 89.9512C219.636 86.3327 218.725 83.268 217.542 81.2441H207.952Z" stroke="#231F20" stroke-opacity="0.1" stroke-width="0.557134"/>
<path d="M217.702 123.293C210.636 123.293 204.909 113.817 204.909 102.129C204.909 90.4402 210.636 80.9648 217.702 80.9648C224.767 80.9648 230.495 90.4402 230.495 102.129C230.495 113.817 224.767 123.293 217.702 123.293Z" fill="#263238"/>
<path opacity="0.4" d="M223.248 111.304C220.185 116.371 215.219 116.371 212.156 111.304C209.093 106.237 209.093 98.0218 212.156 92.9546C215.219 87.8875 220.185 87.8875 223.248 92.9546C226.311 98.0218 226.311 106.237 223.248 111.304Z" fill="white"/>
<g opacity="0.3">
<path d="M218.329 91.4923V98.1434C218.329 98.7156 218.048 99.1797 217.702 99.1797H217.698C217.353 99.1797 217.072 98.7156 217.072 98.1434V91.4923C217.072 90.9202 217.353 90.4561 217.698 90.4561H217.702C218.048 90.4561 218.329 90.9202 218.329 91.4923Z" fill="white"/>
</g>
<g opacity="0.3">
<path d="M218.329 106.111V112.763C218.329 113.335 218.048 113.799 217.702 113.799H217.698C217.353 113.799 217.072 113.335 217.072 112.763V106.111C217.072 105.539 217.353 105.075 217.698 105.075H217.702C218.048 105.075 218.329 105.539 218.329 106.111Z" fill="white"/>
</g>
<g opacity="0.3">
<path d="M220.093 101.04C219.794 101.319 219.415 101.145 219.245 100.65V100.65C219.072 100.155 219.173 99.5208 219.472 99.2328L222.955 95.8906L222.957 95.8889C223.257 95.6036 223.64 95.7752 223.812 96.2716C223.813 96.2727 223.813 96.2733 223.813 96.2744C223.985 96.7708 223.882 97.4037 223.582 97.689L220.103 101.031C220.099 101.034 220.096 101.037 220.093 101.04Z" fill="white"/>
</g>
<g opacity="0.3">
<path d="M211.588 107.937C211.588 107.937 211.587 107.935 211.587 107.934C211.415 107.438 211.518 106.805 211.818 106.52L215.297 103.178C215.598 102.889 215.983 103.056 216.158 103.552C216.332 104.051 216.229 104.687 215.928 104.976L212.449 108.318C212.147 108.606 211.762 108.435 211.588 107.937Z" fill="white"/>
</g>
<g opacity="0.3">
<path d="M223.811 107.966C223.637 108.461 223.255 108.631 222.955 108.344L219.472 105.002C219.172 104.712 219.071 104.075 219.246 103.578C219.42 103.083 219.803 102.915 220.102 103.204L223.581 106.546C223.581 106.546 223.582 106.547 223.582 106.547C223.881 106.834 223.984 107.468 223.811 107.963C223.811 107.964 223.811 107.965 223.811 107.966Z" fill="white"/>
</g>
<g opacity="0.3">
<path d="M216.154 100.661C215.98 101.154 215.596 101.32 215.298 101.031L211.819 97.6891L211.817 97.6874C211.518 97.401 211.416 96.767 211.589 96.2717C211.763 95.7737 212.148 95.6032 212.45 95.8906L215.928 99.2329L215.93 99.2346C216.229 99.5209 216.332 100.155 216.158 100.65C216.157 100.654 216.156 100.657 216.154 100.661Z" fill="white"/>
</g>
<path d="M217.702 100.383C218.284 100.383 218.757 101.164 218.757 102.128C218.757 103.091 218.285 103.873 217.702 103.873C217.119 103.873 216.648 103.092 216.648 102.128C216.648 101.164 217.119 100.383 217.702 100.383Z" fill="#263238"/>
<path d="M122.315 124.25C122.315 124.25 114.461 124.25 111.182 124.179C107.26 124.095 103.289 122.624 100.311 118.051C94.9298 109.786 94.9298 96.3866 100.311 88.1215C103.002 83.9893 108.183 81.9229 111.709 81.9229C115.236 81.9229 122.212 81.9229 122.212 81.9229C127.593 90.1879 127.697 115.985 122.315 124.25Z" fill="#231F20"/>
<path d="M111.709 82.2012C108.262 82.2012 103.176 84.2321 100.545 88.2734C97.8898 92.3514 96.5537 97.7123 96.5537 103.087C96.5538 108.461 97.8899 113.822 100.545 117.899C103.464 122.383 107.344 123.818 111.188 123.9C112.825 123.936 115.606 123.954 117.979 123.963C119.166 123.967 120.25 123.97 121.037 123.971C121.431 123.971 121.751 123.972 121.972 123.972C122.046 123.972 122.109 123.972 122.16 123.972C123.435 121.95 124.405 118.884 125.052 115.263C125.711 111.572 126.033 107.332 126.021 103.088C126.008 98.8436 125.659 94.6019 124.98 90.9111C124.314 87.2894 123.333 84.2238 122.057 82.2012H111.709Z" stroke="#231F20" stroke-opacity="0.1" stroke-width="0.557134"/>
<path d="M122.212 124.249C114.601 124.249 108.432 114.774 108.432 103.086C108.432 91.398 114.601 81.9229 122.212 81.9229C129.822 81.9229 135.991 91.398 135.991 103.086C135.991 114.774 129.822 124.249 122.212 124.249Z" fill="#263238"/>
<path opacity="0.4" d="M128.185 112.261C124.886 117.328 119.537 117.328 116.238 112.261C112.939 107.194 112.939 98.9788 116.238 93.9117C119.537 88.8445 124.886 88.8445 128.185 93.9117C131.484 98.9788 131.484 107.194 128.185 112.261Z" fill="white"/>
<g opacity="0.3">
<path d="M122.886 92.4503V99.1014C122.886 99.6736 122.584 100.138 122.212 100.138H122.207C121.834 100.138 121.532 99.6736 121.532 99.1014V92.4503C121.532 91.8782 121.834 91.4141 122.207 91.4141H122.212C122.584 91.4141 122.886 91.8782 122.886 92.4503Z" fill="white"/>
</g>
<g opacity="0.3">
<path d="M122.886 107.069V113.721C122.886 114.293 122.584 114.757 122.212 114.757H122.207C121.834 114.757 121.532 114.293 121.532 113.721V107.069C121.532 106.497 121.834 106.033 122.207 106.033H122.212C122.584 106.034 122.886 106.497 122.886 107.069Z" fill="white"/>
</g>
<g opacity="0.3">
<path d="M124.788 101.997C124.466 102.277 124.057 102.103 123.875 101.608V101.607C123.687 101.113 123.797 100.479 124.119 100.191L127.87 96.8483L127.872 96.8466C128.195 96.5619 128.607 96.733 128.793 97.2294C128.794 97.2305 128.794 97.231 128.794 97.2322C128.98 97.7286 128.868 98.3615 128.545 98.6467L124.798 101.989C124.794 101.992 124.791 101.995 124.788 101.997Z" fill="white"/>
</g>
<g opacity="0.3">
<path d="M115.627 108.894C115.626 108.893 115.626 108.892 115.626 108.891C115.44 108.395 115.552 107.762 115.875 107.477L119.622 104.135C119.945 103.846 120.36 104.013 120.549 104.509C120.736 105.008 120.625 105.644 120.301 105.933L116.554 109.275C116.23 109.563 115.815 109.392 115.627 108.894Z" fill="white"/>
</g>
<g opacity="0.3">
<path d="M128.791 108.924C128.605 109.419 128.193 109.589 127.87 109.302L124.118 105.96C123.796 105.67 123.686 105.033 123.874 104.536V104.535C124.062 104.041 124.475 103.874 124.797 104.162L128.544 107.504L128.546 107.505C128.868 107.792 128.979 108.426 128.792 108.921C128.792 108.921 128.792 108.923 128.791 108.924Z" fill="white"/>
</g>
<g opacity="0.3">
<path d="M120.545 101.619C120.357 102.112 119.944 102.278 119.622 101.989L115.875 98.6471L115.873 98.6454C115.551 98.3591 115.44 97.725 115.627 97.2297C115.815 96.7317 116.23 96.5612 116.554 96.8487L120.301 100.191L120.303 100.193C120.626 100.479 120.736 101.113 120.549 101.608C120.548 101.612 120.547 101.615 120.545 101.619Z" fill="white"/>
</g>
<path d="M122.212 101.341C122.839 101.341 123.348 102.122 123.348 103.086C123.348 104.05 122.839 104.831 122.212 104.831C121.585 104.831 121.076 104.05 121.076 103.086C121.076 102.122 121.585 101.341 122.212 101.341Z" fill="#263238"/>
<path d="M36.0972 124.25C36.0972 124.25 28.2433 124.25 24.964 124.179C21.0423 124.095 17.0705 122.624 14.0932 118.051C8.7118 109.786 8.7118 96.3866 14.0932 88.1215C16.7836 83.9893 21.9649 81.9229 25.491 81.9229C29.0177 81.9229 35.9935 81.9229 35.9935 81.9229C41.3749 90.1879 41.478 115.985 36.0972 124.25Z" fill="#231F20"/>
<path d="M25.4907 82.2012C22.0439 82.2013 16.9579 84.2321 14.3267 88.2734C11.6715 92.3514 10.3354 97.7123 10.3354 103.087C10.3355 108.461 11.6716 113.822 14.3267 117.899C17.2461 122.383 21.1257 123.818 24.9702 123.9C26.607 123.936 29.3876 123.954 31.7612 123.963C32.9475 123.967 34.0315 123.97 34.8188 123.971C35.2125 123.971 35.5323 123.972 35.7534 123.972C35.8276 123.972 35.8908 123.972 35.9419 123.972C37.217 121.95 38.1863 118.884 38.8335 115.263C39.4929 111.572 39.8151 107.332 39.8022 103.088C39.7894 98.8436 39.442 94.6019 38.7632 90.9111C38.097 87.2893 37.1145 84.2238 35.8384 82.2012H25.4907Z" stroke="#231F20" stroke-opacity="0.1" stroke-width="0.557134"/>
<path d="M35.9929 124.251C28.3826 124.251 22.2133 114.775 22.2133 103.087C22.2133 91.3982 28.3826 81.9229 35.9929 81.9229C43.6031 81.9229 49.7725 91.3982 49.7725 103.087C49.7725 114.775 43.6031 124.251 35.9929 124.251Z" fill="#263238"/>
<g opacity="0.3">
<path d="M35.9929 124.251C28.3826 124.251 22.2133 114.775 22.2133 103.087C22.2133 91.3982 28.3826 81.9229 35.9929 81.9229C43.6031 81.9229 49.7725 91.3982 49.7725 103.087C49.7725 114.775 43.6031 124.251 35.9929 124.251Z" fill="#231F20"/>
<path d="M35.9932 82.2012C32.3133 82.2012 28.9442 84.4924 26.4824 88.2734C24.0223 92.0519 22.4922 97.2887 22.4922 103.087C22.4922 108.885 24.0225 114.121 26.4824 117.899C28.9442 121.68 32.3133 123.972 35.9932 123.972C39.673 123.972 43.0412 121.68 45.5029 117.899C47.9629 114.121 49.4941 108.885 49.4941 103.087C49.4941 97.2887 47.963 92.0519 45.5029 88.2734C43.0412 84.4926 39.6729 82.2013 35.9932 82.2012Z" stroke="#231F20" stroke-opacity="0.1" stroke-width="0.557134"/>
</g>
<path opacity="0.4" d="M35.9931 116.062C31.3275 116.062 27.5453 110.252 27.5453 103.086C27.5453 95.9205 31.3275 90.1113 35.9931 90.1113C40.6587 90.1113 44.4409 95.9205 44.4409 103.086C44.4409 110.252 40.6587 116.062 35.9931 116.062Z" fill="white"/>
<g opacity="0.3">
<path d="M36.668 92.4503V99.1014C36.668 99.6736 36.366 100.138 35.9933 100.138H35.9888C35.6161 100.138 35.3141 99.6736 35.3141 99.1014V92.4503C35.3141 91.8782 35.6161 91.4141 35.9888 91.4141H35.9933C36.366 91.4141 36.668 91.8782 36.668 92.4503Z" fill="white"/>
</g>
<g opacity="0.3">
<path d="M36.668 107.069V113.721C36.668 114.293 36.366 114.757 35.9933 114.757H35.9888C35.6161 114.757 35.3141 114.293 35.3141 113.721V107.069C35.3141 106.497 35.6161 106.033 35.9888 106.033H35.9933C36.366 106.034 36.668 106.497 36.668 107.069Z" fill="white"/>
</g>
<g opacity="0.3">
<path d="M38.5695 101.997C38.2474 102.277 37.8385 102.103 37.6563 101.608V101.607C37.4691 101.113 37.5783 100.479 37.9003 100.191L41.6521 96.8483L41.6537 96.8466C41.9769 96.5619 42.3892 96.733 42.5747 97.2294C42.5753 97.2305 42.5752 97.231 42.5758 97.2322C42.7613 97.7286 42.6499 98.3615 42.3268 98.6467L38.5795 101.989C38.5756 101.992 38.5722 101.995 38.5695 101.997Z" fill="white"/>
</g>
<g opacity="0.3">
<path d="M29.4086 108.894C29.408 108.893 29.408 108.892 29.4075 108.891C29.222 108.395 29.3334 107.762 29.6565 107.477L33.4038 104.135C33.727 103.846 34.1415 104.013 34.3309 104.509C34.5181 105.008 34.4072 105.644 34.083 105.933L30.3357 109.275C30.0109 109.563 29.5958 109.392 29.4086 108.894Z" fill="white"/>
</g>
<g opacity="0.3">
<path d="M42.5732 108.924C42.3866 109.419 41.9743 109.589 41.6517 109.302L37.9 105.96C37.5774 105.67 37.4682 105.033 37.6559 104.536V104.535C37.8437 104.041 38.2565 103.874 38.5785 104.162L42.3258 107.504L42.3275 107.505C42.6501 107.792 42.7604 108.426 42.5737 108.921C42.5737 108.921 42.5732 108.923 42.5732 108.924Z" fill="white"/>
</g>
<g opacity="0.3">
<path d="M34.3272 101.619C34.1389 102.112 33.7255 102.278 33.404 101.989L29.6567 98.6471L29.655 98.6454C29.3325 98.3591 29.2221 97.725 29.4088 97.2297C29.5965 96.7317 30.011 96.5612 30.3359 96.8487L34.0831 100.191L34.0848 100.193C34.4074 100.479 34.5177 101.113 34.3311 101.608C34.33 101.612 34.3283 101.615 34.3272 101.619Z" fill="white"/>
</g>
<path d="M35.9934 101.341C36.6207 101.341 37.1294 102.122 37.1294 103.086C37.1294 104.05 36.6207 104.831 35.9934 104.831C35.3661 104.831 34.8574 104.05 34.8574 103.086C34.8574 102.122 35.3661 101.341 35.9934 101.341Z" fill="#263238"/>
<path d="M233.21 75.5995C232.027 69.2938 230.057 59.047 229.072 57.8648C228.087 56.6825 222.963 56.2881 222.963 56.2881C217.643 50.3769 200.696 40.3273 192.026 35.9917C183.356 31.6566 176.656 30.6716 143.749 28.701C110.841 26.7305 91.3338 31.46 91.3338 31.46C74.5847 33.2333 46.8004 57.0764 46.8004 57.0764C31.0714 60.0209 20.3956 68.1116 20.3956 68.1116C20.3956 68.1116 11.9227 69.2938 8.17871 73.4317C4.43477 77.5701 4.04031 82.299 4.04031 82.299C4.04031 82.299 1.87306 82.299 0.690277 84.0724C-0.491974 85.8457 0.0991516 98.0631 0.690277 104.172C1.28139 110.28 6.01035 113.039 6.01035 113.039L101.681 112.454H101.705C103.732 112.442 105.35 110.781 105.333 108.755C105.263 100.194 106.782 79.6487 122.977 79.6487C122.977 79.6487 134.17 79.7774 135.971 95.088C137.516 108.216 136.885 111.579 136.674 112.272L203.061 113.039L203.455 112.955C203.226 108.792 201.508 89.1211 211.505 81.9424C214.497 79.7936 219.662 79.544 222.777 81.5107C225.928 83.5002 229.582 87.5845 230.42 95.9298C230.824 99.1245 230.826 102.009 230.703 105.952L233.211 104.567C233.604 102.201 234.392 81.9051 233.21 75.5995Z" fill="#054CBC"/>
<path d="M13.2258 80.2494C12.7372 80.9007 7.98206 87.5885 7.98206 87.5885C6.75692 88.2404 11.9238 92.0244 11.9238 91.4138H52.6174L63.623 87.6537C63.2481 86.7367 58.9877 80.738 55.4048 80.2494C51.8218 79.7608 13.2258 80.2494 13.2258 80.2494Z" fill="#263238"/>
<path d="M177.187 56.8096C177.187 56.8096 181.123 59.491 181.313 63.1453C181.503 66.7995 180.447 85.1348 180.338 89.0821C180.15 95.8647 179.262 107.9 179.262 107.9" stroke="#263238" stroke-width="0.139284" stroke-miterlimit="10" stroke-linecap="round" stroke-linejoin="round"/>
<path d="M133.562 58.2099C133.562 58.2099 138.878 59.9398 140.166 65.8749C141.171 70.5086 139.919 109.281 140.248 109.485L200.825 107.023L201.882 97.8366C205.477 80.9354 213.49 78.9408 214.27 76.9496C215.05 74.9579 216.031 59.1007 215.835 57.1502C215.64 55.2002 208.069 50.1877 207.388 49.4512" stroke="#263238" stroke-width="0.139284" stroke-miterlimit="10" stroke-linecap="round" stroke-linejoin="round"/>
<path d="M52.6175 56.5088H125.072C125.072 56.5088 143.508 39.2037 148.846 33.7054C142.167 32.7053 102.854 31.9805 90.7856 33.7054C90.7856 33.7054 70.0842 37.4248 52.6175 56.5088Z" fill="#263238"/>
<path d="M133.348 56.5088C133.348 56.5088 152.563 37.0114 156.518 35.316C160.474 33.6206 173.754 34.6095 179.124 35.316C184.492 36.0224 203.998 44.507 207.389 49.4516C207.389 49.4516 204.272 53.9649 198.761 55.3778C193.251 56.7907 194.664 55.8024 183.079 56.5088C171.494 57.2153 133.348 58.3446 133.348 58.3446V56.5088Z" fill="#263238"/>
<path d="M20.3955 67.9355C20.3955 67.9355 12.4118 74.0607 13.2257 80.2493" stroke="#263238" stroke-width="0.139284" stroke-miterlimit="10" stroke-linecap="round" stroke-linejoin="round"/>
<path opacity="0.7" d="M4.04031 82.1234C4.50496 82.7686 4.87211 86.3783 8.26005 86.4089L11.9243 81.8805C11.9243 81.8805 10.2668 74.8645 11.3048 70.8799C11.3048 70.8799 8.00822 72.9452 6.80202 75.0082C5.59583 77.0719 4.04031 82.1234 4.04031 82.1234Z" fill="white"/>
<g opacity="0.3">
<path d="M97.3781 69.766C97.3781 69.766 103.083 64.0554 124.232 59.7053L133.348 58.3447C134.947 58.4528 136.588 59.6573 138.254 61.5237C145.08 62.8553 189.253 59.2384 189.253 59.2384C189.253 59.2384 144.006 62.7734 130.4 63.6665C116.794 64.559 117.144 64.6192 97.3781 69.766Z" fill="#231F20"/>
<path d="M124.289 59.9775V59.9785C113.733 62.1497 107.041 64.6576 102.996 66.6172C100.973 67.5969 99.6117 68.4398 98.7593 69.0342C98.6964 69.078 98.638 69.123 98.5806 69.1641C107.61 66.8104 112.231 65.585 116.147 64.8467C120.25 64.0731 123.581 63.8348 130.381 63.3887C134.585 63.1128 141.809 62.5826 149.787 61.9844C149.559 61.9917 149.334 62.0002 149.111 62.0068C146.559 62.0828 144.269 62.1145 142.402 62.0859C140.541 62.0574 139.081 61.9686 138.201 61.7969L138.109 61.7793L138.046 61.709C136.395 59.8599 134.827 58.7354 133.353 58.625L124.289 59.9775Z" stroke="#231F20" stroke-opacity="0.1" stroke-width="0.557134"/>
</g>
<path d="M229.837 59.7928C229.698 59.7164 224.967 60.4229 221.788 61.2413C221.788 61.2413 228.042 68.2484 230.121 68.5855L231.791 68.2696C231.791 68.2696 231.504 60.7048 229.837 59.7928Z" fill="#D7504D"/>
<path d="M95.0318 72.6289C95.0318 72.6289 94.1632 70.8043 98.0715 69.5012C101.98 68.1986 121.848 63.9644 122.988 62.0099C124.128 60.0555 125.071 56.5088 125.071 56.5088" stroke="#263238" stroke-width="0.139284" stroke-miterlimit="10" stroke-linecap="round" stroke-linejoin="round"/>
<path opacity="0.3" d="M142.39 105.199C142.39 105.199 197.57 104.425 198.275 103.367C198.98 102.309 194.236 99.1082 194.236 99.1082C193.531 98.6213 142.744 102.117 142.39 105.199Z" fill="white"/>
<path d="M30.5853 82.8516C27.6825 82.8516 25.3293 81.8486 25.3293 80.6113C25.3293 79.3741 27.6825 78.3711 30.5853 78.3711C33.4881 78.3711 35.8413 79.3741 35.8413 80.6113C35.8413 81.8486 33.4881 82.8516 30.5853 82.8516Z" fill="#E0E0E0"/>
<path d="M10.284 102.876C10.284 102.876 5.99969 104.881 6.16739 104.888C6.33508 104.896 7.17189 109.25 7.17189 109.25L72.9694 108.341L79.167 103.086L59.4099 102.815L10.284 102.876Z" fill="#263238"/>
<path d="M95.7373 103.085C95.5356 103.424 89.5386 103.085 89.5386 103.085L83.4687 108.209L92.3923 108.001L95.7373 103.085Z" fill="#263238"/>
<path d="M55.4707 80.6111L62.6538 79.8545" stroke="#263238" stroke-width="0.139284" stroke-miterlimit="10" stroke-linecap="round" stroke-linejoin="round"/>
<path opacity="0.7" d="M62.6536 79.4786C62.6536 79.4786 98.0004 71.5361 100.731 71.8096C103.463 72.0838 111.018 74.2939 110.471 76.3481C109.923 78.4022 104.147 81.5327 96.4783 82.7651C90.3699 83.7468 80.4563 84.9563 73.8832 85.3669C65.861 85.8689 62.6536 79.4786 62.6536 79.4786Z" fill="white"/>
<g opacity="0.3">
<path d="M64.2364 94.3415C64.2364 94.3415 77.6973 87.7729 82.8965 87.7729C88.0957 87.7729 111.288 80.9658 111.288 80.9658C111.288 80.9658 93.9367 91.9536 90.0991 92.8662C86.2616 93.7788 64.2364 94.3415 64.2364 94.3415Z" fill="#231F20"/>
<path d="M107.659 82.2979C105.403 82.9363 102.339 83.7873 99.1133 84.6387C95.8877 85.49 92.4968 86.3421 89.5859 86.9814C86.686 87.6184 84.2317 88.0518 82.8965 88.0518C81.6415 88.0518 79.8596 88.4508 77.8701 89.0654C75.888 89.6778 73.7262 90.496 71.7227 91.3154C69.7197 92.1346 67.8779 92.9536 66.5371 93.5684C66.1697 93.7368 65.8408 93.892 65.5557 94.0254C66.1291 94.0089 66.868 93.9881 67.7295 93.9609C69.8536 93.8939 72.7254 93.7953 75.7168 93.668C78.7088 93.5406 81.819 93.3849 84.4199 93.2041C87.031 93.0226 89.1026 92.8165 90.0352 92.5947C90.4862 92.4874 91.1559 92.2265 91.9951 91.8398C92.8299 91.4553 93.8169 90.9538 94.8975 90.376C97.0584 89.2204 99.5829 87.7636 101.99 86.334C104.397 84.9047 106.684 83.5038 108.37 82.46C108.768 82.2138 109.131 81.9862 109.455 81.7842C108.94 81.9317 108.336 82.1062 107.659 82.2979Z" stroke="#231F20" stroke-opacity="0.1" stroke-width="0.557134"/>
</g>
<path opacity="0.3" d="M56.7213 54.977C56.7213 54.977 76.2901 37.2134 92.622 35.557C108.954 33.9007 119.146 34.3798 119.146 34.3798C119.146 34.3798 114.293 46.8184 105.331 49.2798C96.3687 51.7418 56.7213 54.977 56.7213 54.977Z" fill="white"/>
<g opacity="0.3">
<path d="M1.36738 85.3945C1.36738 85.3945 0.903829 88.9017 1.75401 90.5246C2.6042 92.1481 10.4888 94.2992 10.4888 94.2992L1.36738 85.3945Z" fill="#231F20"/>
<path d="M1.58545 85.9961C1.55582 86.3449 1.52473 86.8249 1.52002 87.3535C1.51529 87.8852 1.53716 88.4617 1.61084 89.001C1.68499 89.5436 1.80946 90.0308 2.00049 90.3955C2.07629 90.5403 2.2503 90.7202 2.53662 90.9268C2.81684 91.1289 3.17997 91.3385 3.60205 91.5498C4.44601 91.9724 5.49921 92.3899 6.53369 92.7588C7.56653 93.1271 8.57403 93.4447 9.32373 93.6709C9.38375 93.689 9.44293 93.7048 9.49951 93.7217L1.58545 85.9961Z" stroke="#231F20" stroke-opacity="0.1" stroke-width="0.557134"/>
</g>
<path opacity="0.7" d="M97.0815 78.4294C97.0815 80.6151 94.7065 82.3867 91.7765 82.3867C88.8465 82.3867 86.4715 80.6151 86.4715 78.4294C86.4715 76.2438 88.8465 74.4727 91.7765 74.4727C94.7065 74.4721 97.0815 76.2438 97.0815 78.4294Z" fill="white"/>
<path opacity="0.7" d="M93.1156 74.1666L100.731 73.4144C100.731 73.4144 103 78.164 98.4875 80.9463C98.4875 80.9463 104.05 79.3067 102.356 73.4144C102.248 72.8952 102.012 72.3598 100.732 72.6283C100.318 72.7147 93.1156 74.1666 93.1156 74.1666Z" fill="white"/>
<path opacity="0.3" d="M51.2994 57.4993C51.2994 57.4993 21.9997 62.2946 16.7816 76.7522C16.7816 76.7522 92.1022 58.0186 91.7763 57.4993C91.4509 56.9801 51.2994 57.4993 51.2994 57.4993Z" fill="white"/>
<path d="M133.348 56.5088C133.348 56.5088 152.563 37.0114 156.518 35.316C160.474 33.6206 173.754 34.6095 179.124 35.316C184.492 36.0224 203.998 44.507 207.389 49.4516C207.389 49.4516 204.272 53.9649 198.761 55.3778C193.251 56.7907 194.664 55.8024 183.079 56.5088C171.494 57.2153 133.348 58.3446 133.348 58.3446V56.5088Z" fill="#231F20" stroke="#231F20" stroke-opacity="0.1" stroke-width="0.139284" stroke-miterlimit="10"/>
<g opacity="0.3">
<path d="M169.598 70.6662L176.605 70.1124C177.272 70.0595 177.769 69.4767 177.716 68.8104L177.622 67.6148C177.569 66.9484 176.986 66.4509 176.32 66.5039L169.313 67.0576C168.646 67.11 168.149 67.6933 168.202 68.3597L168.296 69.5553C168.349 70.2211 168.932 70.7186 169.598 70.6662Z" fill="#231F20"/>
<path d="M176.341 66.7812L169.334 67.335C168.822 67.3753 168.438 67.8249 168.479 68.3379L168.574 69.5332C168.614 70.0457 169.064 70.429 169.577 70.3887L176.583 69.835C177.097 69.7941 177.48 69.3448 177.439 68.832L177.344 67.6367C177.303 67.1236 176.854 66.7405 176.341 66.7812Z" stroke="#231F20" stroke-opacity="0.1" stroke-width="0.557134"/>
</g>
<g opacity="0.3">
<path d="M203.428 67.052L210.435 66.4982C211.101 66.4452 211.599 65.8625 211.546 65.1961L211.451 64.0005C211.399 63.3342 210.816 62.8367 210.149 62.8896L203.142 63.4434C202.476 63.4963 201.978 64.0791 202.031 64.7454L202.126 65.941C202.179 66.6068 202.762 67.1043 203.428 67.052Z" fill="#231F20"/>
<path d="M210.171 63.167L203.164 63.7207C202.651 63.7615 202.268 64.2109 202.309 64.7236L202.403 65.9189C202.444 66.4314 202.893 66.8147 203.406 66.7744L210.413 66.2207C210.926 66.1799 211.309 65.7305 211.269 65.2178L211.174 64.0225C211.134 63.5097 210.684 63.1262 210.171 63.167Z" stroke="#231F20" stroke-opacity="0.1" stroke-width="0.557134"/>
</g>
<path d="M174.711 34.8488C175.072 34.8795 179.262 56.81 179.262 56.81H173.188L170.368 34.543C170.368 34.543 174.35 34.8182 174.711 34.8488Z" fill="#231F20"/>
<path d="M173.433 56.5312H178.925C178.895 56.3767 178.856 56.1707 178.808 55.9199C178.692 55.3203 178.527 54.4635 178.328 53.4355C177.93 51.3794 177.395 48.6379 176.849 45.8955C176.302 43.1526 175.745 40.4097 175.302 38.3516C175.08 37.3222 174.888 36.4664 174.74 35.8682C174.666 35.5684 174.604 35.3378 174.556 35.1836C174.548 35.1574 174.539 35.1344 174.532 35.1143C174.157 35.0864 173.257 35.0228 172.385 34.9619C171.865 34.9256 171.355 34.8905 170.977 34.8643C170.869 34.8568 170.772 34.8496 170.688 34.8438L173.433 56.5312Z" stroke="#231F20" stroke-opacity="0.1" stroke-width="0.557134"/>
<path d="M139.791 50.0986L143.052 57.8829L133.348 58.3448V56.343L139.791 50.0986Z" fill="#231F20"/>
<path d="M133.627 56.46V58.0518L142.642 57.623L139.692 50.582L133.627 56.46Z" stroke="#231F20" stroke-opacity="0.1" stroke-width="0.557134"/>
<path d="M153.705 52.4819C153.655 52.4134 153.603 52.3432 153.551 52.2708C152.284 50.5286 146.661 48.3106 141.275 50.1325C137.346 51.4612 138.054 56.0788 138.725 58.4789C139.047 59.6311 140.011 60.4835 141.195 60.6562C144.417 61.1275 150.368 60.664 151.888 59.874C151.97 59.8316 152.051 59.7876 152.13 59.7436C154.731 58.2873 155.471 54.8843 153.705 52.4819Z" fill="#054CBC" stroke="#231F20" stroke-width="0.139284" stroke-miterlimit="10" stroke-linecap="round" stroke-linejoin="round"/>
<path opacity="0.3" d="M140.608 51.5611C140.608 51.5611 141.928 50.541 144.269 50.4206C146.611 50.3008 152.735 50.7694 153.573 54.2214C154.411 57.6728 137.681 52.6302 140.608 51.5611Z" fill="white"/>
<path d="M145.987 101.399L145.497 95.8488L148.895 95.549L148.945 96.1193L146.19 96.3624L146.356 98.2418L148.629 98.0413L148.679 98.6035L146.406 98.804L146.579 100.772L149.334 100.529L149.384 101.099L145.987 101.399ZM150.983 100.958L149.504 97.0413L150.179 96.9818L151.401 100.379L151.706 100.352L152.347 96.7905L152.99 96.7338L152.22 100.849L150.983 100.958ZM155.605 100.631C155.155 100.671 154.798 100.624 154.532 100.491C154.272 100.357 154.077 100.137 153.948 99.8303C153.824 99.5229 153.74 99.1282 153.698 98.6463C153.657 98.1858 153.677 97.8009 153.758 97.4916C153.844 97.1819 154.006 96.9409 154.244 96.7688C154.483 96.5966 154.813 96.4919 155.236 96.4546C155.665 96.4168 156.011 96.4618 156.276 96.5895C156.541 96.7172 156.74 96.9263 156.874 97.2167C157.013 97.5066 157.103 97.8818 157.143 98.3423C157.186 98.8242 157.17 99.2276 157.096 99.5525C157.028 99.8769 156.875 100.128 156.637 100.305C156.404 100.482 156.06 100.591 155.605 100.631ZM155.557 100.093C155.868 100.066 156.096 99.9915 156.242 99.8707C156.387 99.7446 156.474 99.5616 156.501 99.3217C156.534 99.0814 156.534 98.7738 156.501 98.399C156.468 98.0295 156.41 97.7379 156.326 97.524C156.243 97.3101 156.119 97.1619 155.955 97.0792C155.791 96.9965 155.568 96.9677 155.284 96.9927C155.005 97.0173 154.79 97.0849 154.638 97.1954C154.491 97.3055 154.395 97.4731 154.351 97.6983C154.306 97.9235 154.3 98.2209 154.332 98.5903C154.365 98.9652 154.416 99.2682 154.485 99.4996C154.56 99.7305 154.679 99.8953 154.845 99.994C155.009 100.087 155.247 100.12 155.557 100.093ZM158.976 100.253L157.37 94.8013L158.037 94.7425L159.409 99.648L159.633 99.6282L160.321 94.5814L161.076 94.5148L162.637 99.3631L162.862 99.3433L163.354 94.2734L164.02 94.2145L163.386 99.8637L162.229 99.9658L160.688 95.0671L160.8 95.0571L160.141 100.15L158.976 100.253ZM166.131 99.7024C165.762 99.735 165.471 99.6554 165.26 99.4636C165.049 99.2718 164.926 98.9751 164.89 98.5735C164.867 98.3111 164.894 98.0929 164.97 97.9189C165.046 97.7449 165.172 97.607 165.346 97.5053C165.526 97.3977 165.751 97.3212 166.022 97.2757L167.248 97.046L167.218 96.7007C167.194 96.4276 167.115 96.2403 166.982 96.1387C166.854 96.0366 166.673 95.996 166.437 96.0168C166.303 96.0286 166.143 96.0481 165.957 96.0754C165.776 96.1021 165.595 96.1316 165.414 96.1637C165.233 96.1958 165.074 96.2261 164.936 96.2544L164.863 95.7834C164.989 95.7453 165.142 95.7048 165.321 95.662C165.501 95.6191 165.689 95.5809 165.886 95.5474C166.082 95.5085 166.263 95.4817 166.429 95.4671C166.734 95.4402 166.988 95.4664 167.189 95.5458C167.39 95.6198 167.541 95.7494 167.644 95.9346C167.752 96.114 167.818 96.3509 167.844 96.6454L168.024 98.6775C168.045 98.7943 168.098 98.876 168.183 98.9224C168.273 98.9684 168.383 98.9938 168.513 98.9985L168.533 99.4906C168.458 99.4972 168.385 99.5009 168.315 99.5017C168.245 99.5024 168.177 99.4976 168.111 99.4872C168.051 99.4817 167.991 99.4735 167.931 99.4627C167.859 99.442 167.789 99.4158 167.722 99.384C167.66 99.3517 167.597 99.3114 167.533 99.2631C167.435 99.3149 167.308 99.372 167.152 99.4343C167.001 99.4962 166.835 99.5513 166.656 99.5994C166.483 99.6525 166.308 99.6868 166.131 99.7024ZM166.189 99.1712C166.334 99.1584 166.483 99.1318 166.636 99.0913C166.789 99.0508 166.933 99.0057 167.069 98.956C167.205 98.9062 167.317 98.8612 167.405 98.8211L167.29 97.5119L166.135 97.7271C165.896 97.7698 165.728 97.8547 165.631 97.982C165.54 98.1088 165.504 98.2819 165.523 98.5014C165.543 98.7263 165.61 98.8985 165.723 99.0181C165.836 99.1376 165.991 99.1886 166.189 99.1712ZM170.54 99.3134C170.417 99.3243 170.266 99.3295 170.088 99.329C169.915 99.3281 169.742 99.3245 169.569 99.3182C169.395 99.3065 169.241 99.2959 169.105 99.2863L169.09 98.7453C169.225 98.7495 169.377 98.7551 169.544 98.7618C169.718 98.7681 169.885 98.7722 170.047 98.7741C170.209 98.7707 170.338 98.7647 170.434 98.7562C170.654 98.7368 170.834 98.702 170.975 98.6518C171.116 98.5962 171.22 98.5169 171.286 98.4139C171.353 98.3109 171.378 98.171 171.363 97.9943C171.351 97.8605 171.312 97.7587 171.247 97.6889C171.187 97.6187 171.077 97.5663 170.917 97.5318C170.763 97.4968 170.539 97.4707 170.246 97.4534C169.942 97.4316 169.686 97.3949 169.476 97.3433C169.271 97.2858 169.114 97.189 169.005 97.0529C168.896 96.9169 168.83 96.715 168.806 96.4473C168.78 96.1474 168.828 95.9057 168.952 95.722C169.077 95.5384 169.245 95.4021 169.459 95.3131C169.677 95.2183 169.907 95.1603 170.148 95.139C170.297 95.1258 170.461 95.1194 170.64 95.1199C170.823 95.1199 171.002 95.1257 171.175 95.1374C171.349 95.1437 171.498 95.1521 171.623 95.1627L171.654 95.7022C171.524 95.6921 171.372 95.6866 171.199 95.6857C171.026 95.6794 170.853 95.6784 170.681 95.6828C170.508 95.6819 170.358 95.6871 170.229 95.6984C170.069 95.7126 169.926 95.7441 169.801 95.7929C169.675 95.8364 169.578 95.9042 169.511 95.9965C169.443 96.0888 169.417 96.2126 169.43 96.3679C169.441 96.4857 169.476 96.5797 169.536 96.6499C169.596 96.7148 169.703 96.7648 169.857 96.7997C170.011 96.8347 170.232 96.8637 170.52 96.8869C170.857 96.9111 171.128 96.9547 171.333 97.0175C171.544 97.0799 171.701 97.1793 171.805 97.3159C171.908 97.4524 171.972 97.6519 171.995 97.9143C172.022 98.2248 171.98 98.4795 171.868 98.6782C171.761 98.8711 171.593 99.0182 171.365 99.1193C171.142 99.2199 170.867 99.2846 170.54 99.3134ZM173.021 99.0136L172.513 93.2548L173.132 93.2002L173.305 95.16C173.397 95.1086 173.509 95.0556 173.639 95.001C173.774 94.9405 173.917 94.8874 174.07 94.8415C174.222 94.7957 174.368 94.7667 174.507 94.7544C174.786 94.7298 175.017 94.7472 175.2 94.8066C175.383 94.8606 175.53 94.9637 175.64 95.1158C175.755 95.2621 175.843 95.4594 175.903 95.7078C175.962 95.9508 176.007 96.249 176.038 96.6024L176.226 98.7308L175.6 98.7861L175.414 96.6818C175.383 96.3337 175.337 96.0572 175.276 95.8521C175.22 95.6466 175.129 95.5035 175.003 95.4229C174.877 95.3369 174.691 95.3048 174.445 95.3265C174.311 95.3383 174.173 95.364 174.03 95.4035C173.893 95.4372 173.764 95.4782 173.645 95.5266C173.525 95.5749 173.426 95.6187 173.349 95.6579L173.64 98.959L173.021 99.0136Z" fill="white"/>
</svg>
