<svg width="25" height="28" viewBox="0 0 25 28" fill="none" xmlns="http://www.w3.org/2000/svg">
<path d="M1.25 15.625L11.25 1.25V15.625H1.25ZM13.125 15.625C13.375 15.0417 13.6458 14.0208 13.9375 12.5625C14.2292 11.1042 14.375 9.625 14.375 8.125C14.375 6.625 14.2344 5.08333 13.9531 3.5C13.6719 1.91667 13.3958 0.75 13.125 0C14.3958 0.375 15.6615 1.07292 16.9219 2.09375C18.1823 3.11458 19.3177 4.33333 20.3281 5.75C21.3385 7.16667 22.1615 8.72396 22.7969 10.4219C23.4323 12.1198 23.75 13.8542 23.75 15.625H13.125ZM8.75 22.5C8 22.5 7.30208 22.3229 6.65625 21.9688C6.01042 21.6146 5.45833 21.1667 5 20.625C4.70833 20.9375 4.39062 21.2292 4.04688 21.5C3.70312 21.7708 3.32292 21.9896 2.90625 22.1562C2.17708 21.6146 1.55729 20.9427 1.04688 20.1406C0.536458 19.3385 0.1875 18.4583 0 17.5H25C24.8125 18.4583 24.4635 19.3385 23.9531 20.1406C23.4427 20.9427 22.8229 21.6146 22.0938 22.1562C21.6771 21.9896 21.2969 21.7708 20.9531 21.5C20.6094 21.2292 20.2917 20.9375 20 20.625C19.5208 21.1667 18.9635 21.6146 18.3281 21.9688C17.6927 22.3229 17 22.5 16.25 22.5C15.5 22.5 14.8021 22.3229 14.1562 21.9688C13.5104 21.6146 12.9583 21.1667 12.5 20.625C12.0417 21.1667 11.4896 21.6146 10.8438 21.9688C10.1979 22.3229 9.5 22.5 8.75 22.5ZM0 27.5V25H1.25C1.91667 25 2.56771 24.8958 3.20312 24.6875C3.83854 24.4792 4.4375 24.1667 5 23.75C5.5625 24.1667 6.16146 24.474 6.79688 24.6719C7.43229 24.8698 8.08333 24.9688 8.75 24.9688C9.41667 24.9688 10.0625 24.8698 10.6875 24.6719C11.3125 24.474 11.9167 24.1667 12.5 23.75C13.0625 24.1667 13.6615 24.474 14.2969 24.6719C14.9323 24.8698 15.5833 24.9688 16.25 24.9688C16.9167 24.9688 17.5625 24.8698 18.1875 24.6719C18.8125 24.474 19.4167 24.1667 20 23.75C20.5833 24.1667 21.1875 24.4792 21.8125 24.6875C22.4375 24.8958 23.0833 25 23.75 25H25V27.5H23.75C23.1042 27.5 22.4688 27.4219 21.8438 27.2656C21.2188 27.1094 20.6042 26.875 20 26.5625C19.3958 26.875 18.7812 27.1094 18.1562 27.2656C17.5312 27.4219 16.8958 27.5 16.25 27.5C15.6042 27.5 14.9688 27.4219 14.3438 27.2656C13.7188 27.1094 13.1042 26.875 12.5 26.5625C11.8958 26.875 11.2812 27.1094 10.6562 27.2656C10.0312 27.4219 9.39583 27.5 8.75 27.5C8.10417 27.5 7.46875 27.4219 6.84375 27.2656C6.21875 27.1094 5.60417 26.875 5 26.5625C4.39583 26.875 3.78125 27.1094 3.15625 27.2656C2.53125 27.4219 1.89583 27.5 1.25 27.5H0Z" fill="#003883"/>
</svg>
