<svg width="24" height="30" viewBox="0 0 24 30" fill="none" xmlns="http://www.w3.org/2000/svg">
<path d="M12 16.5C10.525 16.5 9.28125 15.9937 8.26875 14.9812C7.25625 13.9688 6.75 12.725 6.75 11.25C6.75 9.775 7.25625 8.53125 8.26875 7.51875C9.28125 6.50625 10.525 6 12 6C13.475 6 14.7188 6.50625 15.7312 7.51875C16.7437 8.53125 17.25 9.775 17.25 11.25C17.25 12.725 16.7437 13.9688 15.7312 14.9812C14.7188 15.9937 13.475 16.5 12 16.5ZM12 13.5C12.65 13.5 13.1875 13.2875 13.6125 12.8625C14.0375 12.4375 14.25 11.9 14.25 11.25C14.25 10.6 14.0375 10.0625 13.6125 9.6375C13.1875 9.2125 12.65 9 12 9C11.35 9 10.8125 9.2125 10.3875 9.6375C9.9625 10.0625 9.75 10.6 9.75 11.25C9.75 11.9 9.9625 12.4375 10.3875 12.8625C10.8125 13.2875 11.35 13.5 12 13.5ZM12 30C8.525 29.125 5.65625 27.1312 3.39375 24.0187C1.13125 20.9062 0 17.45 0 13.65V4.5L12 0L24 4.5V13.65C24 17.45 22.8688 20.9062 20.6063 24.0187C18.3438 27.1312 15.475 29.125 12 30ZM12 3.1875L3 6.5625V13.65C3 15 3.1875 16.3125 3.5625 17.5875C3.9375 18.8625 4.45 20.0625 5.1 21.1875C6.15 20.6625 7.25 20.25 8.4 19.95C9.55 19.65 10.75 19.5 12 19.5C13.25 19.5 14.45 19.65 15.6 19.95C16.75 20.25 17.85 20.6625 18.9 21.1875C19.55 20.0625 20.0625 18.8625 20.4375 17.5875C20.8125 16.3125 21 15 21 13.65V6.5625L12 3.1875ZM12 22.5C11.1 22.5 10.225 22.6 9.375 22.8C8.525 23 7.7125 23.275 6.9375 23.625C7.6625 24.375 8.45 25.025 9.3 25.575C10.15 26.125 11.05 26.55 12 26.85C12.95 26.55 13.85 26.125 14.7 25.575C15.55 25.025 16.3375 24.375 17.0625 23.625C16.2875 23.275 15.475 23 14.625 22.8C13.775 22.6 12.9 22.5 12 22.5Z" fill="#48695F"/>
</svg>
