<svg width="44" height="44" viewBox="0 0 44 44" fill="none" xmlns="http://www.w3.org/2000/svg">
  <defs>
    <clipPath id="halfClip">
      <rect x="22" y="0" width="22" height="44" />
    </clipPath>
  </defs>

  <path d="M25.1671 6.31465L28.3934 12.8206C28.8334 13.7262 30.0066 14.5949 30.9966 14.7613L36.8442 15.7409C40.5838 16.3693 41.4638 19.1048 38.769 21.8032L34.2229 26.3869C33.4529 27.1632 33.0314 28.6603 33.2695 29.7324L34.5712 35.4066C35.5977 39.8979 33.2329 41.6353 29.2917 39.2879L23.8106 36.0165C22.8208 35.4251 21.1893 35.4251 20.181 36.0165L14.7 39.2879C10.7771 41.6353 8.39403 39.8794 9.42058 35.4066L10.7221 29.7324C10.9604 28.6603 10.5388 27.1632 9.76886 26.3869L5.22271 21.8032C2.54634 19.1048 3.40791 16.3693 7.14749 15.7409L12.9952 14.7613C13.9667 14.5949 15.1399 13.7262 15.5799 12.8206L18.8062 6.31465C20.566 2.78444 23.4256 2.78444 25.1671 6.31465Z"
    fill="#F2D144"
    stroke="#F2D144"
    stroke-width="2.75"
    stroke-linecap="round"
    stroke-linejoin="round"
    clip-path="url(#halfClip)"
  />
</svg>
