<svg width="22" height="18" viewBox="0 0 22 18" fill="none" xmlns="http://www.w3.org/2000/svg">
<path d="M3 7L2.3436 7.9846C1.67671 8.9849 1.34326 9.4851 1.17163 10.052C1 10.6188 1 11.22 1 12.4222V15.5C1 15.9659 1 16.1989 1.07612 16.3827C1.17761 16.6277 1.37229 16.8224 1.61732 16.9239C1.80109 17 2.03406 17 2.5 17C2.96594 17 3.19891 17 3.38268 16.9239C3.62771 16.8224 3.82239 16.6277 3.92388 16.3827C4 16.1989 4 15.9659 4 15.5C4 15.0341 4 14.8011 4.07612 14.6173C4.17761 14.3723 4.37229 14.1776 4.61732 14.0761C4.80109 14 5.03406 14 5.5 14H16.5C16.9659 14 17.1989 14 17.3827 14.0761C17.6277 14.1776 17.8224 14.3723 17.9239 14.6173C18 14.8011 18 15.0341 18 15.5C18 15.9659 18 16.1989 18.0761 16.3827C18.1776 16.6277 18.3723 16.8224 18.6173 16.9239C18.8011 17 19.0341 17 19.5 17C19.9659 17 20.1989 17 20.3827 16.9239C20.6277 16.8224 20.8224 16.6277 20.9239 16.3827C21 16.1989 21 15.9659 21 15.5V12.4222C21 11.22 21 10.6188 20.8284 10.052C20.6567 9.4851 20.3233 8.9849 19.6564 7.9846L19 7M3 7L3.96154 4.69231C4.70726 2.90257 5.08013 2.0077 5.8359 1.50385C6.59167 1 7.56112 1 9.5 1H12.5C14.4389 1 15.4083 1 16.1641 1.50385C16.9199 2.0077 17.2927 2.90257 18.0385 4.69231L19 7M3 7L1 5.5M3 7L4.76114 7.4403C4.91978 7.4799 5.08269 7.5 5.24621 7.5H16.7538C16.9173 7.5 17.0802 7.4799 17.2389 7.4403L19 7M19 7L21 5.5M17 11V11.01M5 11V11.01" stroke="black" stroke-width="1.5" stroke-linecap="round" stroke-linejoin="round"/>
</svg>
